<?xml version="1.0" encoding="utf-8"?>
<svg version="1.1" xmlns:xlink="http://www.w3.org/1999/xlink" width="14px" height="15px" xmlns="http://www.w3.org/2000/svg">
  <defs>
    <mask fill="white" id="clip17">
      <path d="M 7.10180623973728 15  L 0 7.5  L 7.10180623973728 0  L 7.10180623973728 5.8689413265305  L 14 5.8689413265305  L 14 9.1310586734695  L 7.10180623973728 9.1310586734695  L 7.10180623973728 15  Z " fill-rule="evenodd" />
    </mask>
  </defs>
  <g transform="matrix(1 0 0 1 -238 -451 )">
    <path d="M 7.10180623973728 15  L 0 7.5  L 7.10180623973728 0  L 7.10180623973728 5.8689413265305  L 14 5.8689413265305  L 14 9.1310586734695  L 7.10180623973728 9.1310586734695  L 7.10180623973728 15  Z " fill-rule="nonzero" fill="#ffffff" stroke="none" transform="matrix(1 0 0 1 238 451 )" />
    <path d="M 7.10180623973728 15  L 0 7.5  L 7.10180623973728 0  L 7.10180623973728 5.8689413265305  L 14 5.8689413265305  L 14 9.1310586734695  L 7.10180623973728 9.1310586734695  L 7.10180623973728 15  Z " stroke-width="2" stroke="#797979" fill="none" transform="matrix(1 0 0 1 238 451 )" mask="url(#clip17)" />
  </g>
</svg>